<?xml version="1.0" encoding="utf-8"?>
<!-- Generator: Adobe Illustrator 16.0.0, SVG Export Plug-In . SVG Version: 6.00 Build 0)  -->
<!DOCTYPE svg PUBLIC "-//W3C//DTD SVG 1.1//EN" "http://www.w3.org/Graphics/SVG/1.1/DTD/svg11.dtd">
<svg version="1.1" id="Layer_1" xmlns="http://www.w3.org/2000/svg" xmlns:xlink="http://www.w3.org/1999/xlink" x="0px" y="0px"
	 width="80px" height="26px" viewBox="0 0 80 26" enable-background="new 0 0 80 26" xml:space="preserve">
<g>
	<path fill-rule="evenodd" clip-rule="evenodd" fill="#9AC656" d="M50.109,2.195c-0.014,1.244-1.005,2.207-2.232,2.165
		c-1.187-0.039-2.138-1.041-2.112-2.224c0.026-1.243,0.995-2.163,2.252-2.136C49.247,0.027,50.124,0.947,50.109,2.195z"/>
	<g>
		<rect x="46.308" y="6.855" fill="#9AC656" width="3.26" height="16.728"/>
	</g>
	<g>
		<path fill="#9AC656" d="M34.755,23.957c-4.328,0-7.85-3.521-7.85-7.85V6.855h3.687v9.252c0,2.295,1.868,4.162,4.163,4.162
			c2.296,0,4.163-1.867,4.163-4.162V6.855h3.688v9.252C42.605,20.436,39.084,23.957,34.755,23.957z"/>
	</g>
	<path fill="#9AC656" d="M63.115,6.756c-2.408,0.214-4.529,1.231-6.376,3.133V6.855h-3.26v16.728h3.26v-6.739
		c0-2.928,1.41-5.056,3.762-5.891C61.073,9.37,61.973,7.945,63.115,6.756z"/>
	<path fill="#9AC656" d="M76.007,18.479c-1.16,1.664-2.846,2.294-4.826,2.023c-2.068-0.281-3.401-1.545-4.068-3.5
		c-0.121-0.355-0.114-0.754-0.174-1.191c0,0,12.376,0,12.887,0c0.617-4.481-2.461-8.663-6.753-9.283
		c-4.599-0.666-8.854,2.383-9.47,6.976c-0.59,4.399,1.207,8.858,6.94,9.933c4.249,0.795,8.235-2.182,8.824-4.957H76.007z
		 M67.141,12.857c0.464-1.832,2.387-3.285,4.443-3.377c2.087-0.094,3.88,1.048,4.54,2.928c0.109,0.308,0.197,0.517,0.319,0.997
		h-9.388C67.043,13.222,67.098,13.028,67.141,12.857z"/>
	<path fill="#9AC656" d="M24.233,21.098c-0.502-1.604-1.289-2.76-2.271-3.675c0.744-1.522,1.164-3.231,1.164-5.037
		c0-6.35-5.166-11.515-11.516-11.515c-6.349,0-11.515,5.165-11.515,11.515S5.262,23.9,11.61,23.9c2.414,0,4.655-0.748,6.508-2.021
		c-3.963,0.265-10.369-0.218-13.227-5.495h0.002c-0.7-1.172-1.11-2.536-1.11-3.998c0-4.315,3.512-7.828,7.827-7.828
		c4.316,0,7.829,3.513,7.829,7.828c0,1.056-0.214,2.061-0.595,2.98c-0.025-0.014-0.05-0.026-0.075-0.039
		c-0.332-0.167-2.886-1.42-3.164-1.559c-1.532-0.771-2.992-1.632-3.721-2.747c-0.12,0.34-0.216,0.461-0.273,1.114
		c-0.106,1.2,0.778,2.558,1.894,3.768c0.969,1.048,2.149,1.958,3.438,2.839c2.099,1.434,6.09,4,6.653,7.258
		c0.122-0.235,0.252-0.507,0.376-0.807C24.532,23.832,24.593,22.246,24.233,21.098z"/>
</g>
</svg>
